<mxfile modified="2021-10-02T04:30:45.214Z" host="app.diagrams.net" agent="5.0 (Windows NT 10.0; Win64; x64) AppleWebKit/537.36 (KHTML, like Gecko) Chrome/94.0.4606.61 Safari/537.36" etag="2lxh7syQObuzexTSW98v" version="15.3.5" type="github">
  <diagram id="l8hXMBHkgcEJcSW0mbfh" name="Page-1">
    <mxGraphModel dx="9849" dy="3423" grid="1" gridSize="10" guides="1" tooltips="1" connect="1" arrows="1" fold="1" page="1" pageScale="1" pageWidth="1169" pageHeight="827" math="0" shadow="0">
      <root>
        <mxCell id="0" />
        <mxCell id="1" parent="0" />
        <mxCell id="v-oxT2buTYklCNRCgCxq-1" value="" style="aspect=fixed;perimeter=ellipsePerimeter;html=1;align=center;shadow=0;dashed=0;spacingTop=3;image;image=img/lib/active_directory/internet_cloud.svg;strokeWidth=5;" parent="1" vertex="1">
          <mxGeometry x="1680.72" y="1421" width="370" height="233.1" as="geometry" />
        </mxCell>
        <mxCell id="v-oxT2buTYklCNRCgCxq-2" value="&lt;font style=&quot;font-size: 72px&quot;&gt;Internet&lt;/font&gt;" style="text;html=1;align=center;verticalAlign=middle;resizable=0;points=[];autosize=1;strokeColor=none;fillColor=none;strokeWidth=5;" parent="1" vertex="1">
          <mxGeometry x="1730" y="1530" width="260" height="40" as="geometry" />
        </mxCell>
        <mxCell id="v-oxT2buTYklCNRCgCxq-72" style="edgeStyle=orthogonalEdgeStyle;rounded=0;orthogonalLoop=1;jettySize=auto;html=1;entryX=0.5;entryY=1;entryDx=0;entryDy=0;strokeWidth=5;" parent="1" source="v-oxT2buTYklCNRCgCxq-3" target="v-oxT2buTYklCNRCgCxq-1" edge="1">
          <mxGeometry relative="1" as="geometry" />
        </mxCell>
        <mxCell id="v-oxT2buTYklCNRCgCxq-3" value="" style="sketch=0;pointerEvents=1;shadow=0;dashed=0;html=1;strokeColor=none;fillColor=#005F4B;labelPosition=center;verticalLabelPosition=bottom;verticalAlign=top;align=center;outlineConnect=0;shape=mxgraph.veeam2.vpn_server;strokeWidth=5;" parent="1" vertex="1">
          <mxGeometry x="1670" y="1750" width="250" height="192" as="geometry" />
        </mxCell>
        <mxCell id="v-oxT2buTYklCNRCgCxq-4" value="&lt;font style=&quot;font-size: 72px&quot;&gt;VPN SERVER&lt;/font&gt;" style="text;html=1;align=center;verticalAlign=middle;resizable=0;points=[];autosize=1;strokeColor=none;fillColor=none;strokeWidth=5;" parent="1" vertex="1">
          <mxGeometry x="1995" y="1881" width="480" height="40" as="geometry" />
        </mxCell>
        <mxCell id="v-oxT2buTYklCNRCgCxq-15" style="edgeStyle=orthogonalEdgeStyle;rounded=0;orthogonalLoop=1;jettySize=auto;html=1;strokeWidth=5;" parent="1" source="v-oxT2buTYklCNRCgCxq-5" target="v-oxT2buTYklCNRCgCxq-9" edge="1">
          <mxGeometry relative="1" as="geometry" />
        </mxCell>
        <mxCell id="v-oxT2buTYklCNRCgCxq-16" style="edgeStyle=orthogonalEdgeStyle;rounded=0;orthogonalLoop=1;jettySize=auto;html=1;entryX=0.314;entryY=1.005;entryDx=0;entryDy=0;entryPerimeter=0;strokeWidth=5;" parent="1" source="v-oxT2buTYklCNRCgCxq-5" target="v-oxT2buTYklCNRCgCxq-12" edge="1">
          <mxGeometry relative="1" as="geometry" />
        </mxCell>
        <mxCell id="v-oxT2buTYklCNRCgCxq-73" style="edgeStyle=orthogonalEdgeStyle;rounded=0;orthogonalLoop=1;jettySize=auto;html=1;entryX=0.25;entryY=0;entryDx=0;entryDy=0;strokeWidth=5;" parent="1" source="v-oxT2buTYklCNRCgCxq-5" target="v-oxT2buTYklCNRCgCxq-54" edge="1">
          <mxGeometry relative="1" as="geometry" />
        </mxCell>
        <mxCell id="v-oxT2buTYklCNRCgCxq-5" value="" style="sketch=0;points=[[0.015,0.015,0],[0.985,0.015,0],[0.985,0.985,0],[0.015,0.985,0],[0.25,0,0],[0.5,0,0],[0.75,0,0],[1,0.25,0],[1,0.5,0],[1,0.75,0],[0.75,1,0],[0.5,1,0],[0.25,1,0],[0,0.75,0],[0,0.5,0],[0,0.25,0]];verticalLabelPosition=bottom;html=1;verticalAlign=top;aspect=fixed;align=center;pointerEvents=1;shape=mxgraph.cisco19.rect;prIcon=l3_switch;fillColor=#FAFAFA;strokeColor=#005073;strokeWidth=5;" parent="1" vertex="1">
          <mxGeometry x="810" y="2760" width="222.7" height="222.7" as="geometry" />
        </mxCell>
        <mxCell id="v-oxT2buTYklCNRCgCxq-62" style="edgeStyle=orthogonalEdgeStyle;rounded=0;orthogonalLoop=1;jettySize=auto;html=1;entryX=0;entryY=0.5;entryDx=0;entryDy=0;entryPerimeter=0;strokeWidth=5;" parent="1" source="v-oxT2buTYklCNRCgCxq-6" target="v-oxT2buTYklCNRCgCxq-5" edge="1">
          <mxGeometry relative="1" as="geometry" />
        </mxCell>
        <mxCell id="v-oxT2buTYklCNRCgCxq-6" value="" style="verticalLabelPosition=bottom;sketch=0;aspect=fixed;html=1;verticalAlign=top;strokeColor=none;align=center;outlineConnect=0;shape=mxgraph.citrix.dhcp_server;strokeWidth=5;" parent="1" vertex="1">
          <mxGeometry x="46.5" y="2570" width="120" height="142.1" as="geometry" />
        </mxCell>
        <mxCell id="v-oxT2buTYklCNRCgCxq-8" value="&lt;font style=&quot;font-size: 72px&quot;&gt;DHCP Server and dns&lt;/font&gt;" style="text;html=1;align=center;verticalAlign=middle;resizable=0;points=[];autosize=1;strokeColor=none;fillColor=none;strokeWidth=5;" parent="1" vertex="1">
          <mxGeometry x="-245" y="2530" width="730" height="40" as="geometry" />
        </mxCell>
        <mxCell id="v-oxT2buTYklCNRCgCxq-9" value="" style="sketch=0;aspect=fixed;pointerEvents=1;shadow=0;dashed=0;html=1;strokeColor=none;labelPosition=center;verticalLabelPosition=bottom;verticalAlign=top;align=center;fillColor=#00188D;shape=mxgraph.mscae.enterprise.domain_controller;strokeWidth=5;" parent="1" vertex="1">
          <mxGeometry x="1710" y="2760" width="156.88" height="217.89" as="geometry" />
        </mxCell>
        <mxCell id="v-oxT2buTYklCNRCgCxq-78" style="edgeStyle=orthogonalEdgeStyle;rounded=0;orthogonalLoop=1;jettySize=auto;html=1;entryX=0.646;entryY=0.994;entryDx=0;entryDy=0;entryPerimeter=0;strokeWidth=5;" parent="1" source="v-oxT2buTYklCNRCgCxq-10" target="v-oxT2buTYklCNRCgCxq-5" edge="1">
          <mxGeometry relative="1" as="geometry" />
        </mxCell>
        <mxCell id="v-oxT2buTYklCNRCgCxq-10" value="" style="sketch=0;aspect=fixed;pointerEvents=1;shadow=0;dashed=0;html=1;strokeColor=none;labelPosition=center;verticalLabelPosition=bottom;verticalAlign=top;align=center;fillColor=#00188D;shape=mxgraph.mscae.enterprise.domain_controller;strokeWidth=5;" parent="1" vertex="1">
          <mxGeometry x="1870" y="2999" width="180.72" height="251" as="geometry" />
        </mxCell>
        <mxCell id="v-oxT2buTYklCNRCgCxq-79" style="edgeStyle=orthogonalEdgeStyle;rounded=0;orthogonalLoop=1;jettySize=auto;html=1;strokeWidth=5;" parent="1" source="v-oxT2buTYklCNRCgCxq-11" target="v-oxT2buTYklCNRCgCxq-5" edge="1">
          <mxGeometry relative="1" as="geometry" />
        </mxCell>
        <mxCell id="v-oxT2buTYklCNRCgCxq-11" value="" style="sketch=0;aspect=fixed;pointerEvents=1;shadow=0;dashed=0;html=1;strokeColor=none;labelPosition=center;verticalLabelPosition=bottom;verticalAlign=top;align=center;fillColor=#00188D;shape=mxgraph.mscae.enterprise.domain_controller;strokeWidth=5;" parent="1" vertex="1">
          <mxGeometry x="1870" y="2740" width="164.08" height="227.89" as="geometry" />
        </mxCell>
        <mxCell id="v-oxT2buTYklCNRCgCxq-77" style="edgeStyle=orthogonalEdgeStyle;rounded=0;orthogonalLoop=1;jettySize=auto;html=1;strokeWidth=5;" parent="1" source="v-oxT2buTYklCNRCgCxq-12" target="v-oxT2buTYklCNRCgCxq-5" edge="1">
          <mxGeometry relative="1" as="geometry" />
        </mxCell>
        <mxCell id="v-oxT2buTYklCNRCgCxq-12" value="" style="sketch=0;aspect=fixed;pointerEvents=1;shadow=0;dashed=0;html=1;strokeColor=none;labelPosition=center;verticalLabelPosition=bottom;verticalAlign=top;align=center;fillColor=#00188D;shape=mxgraph.mscae.enterprise.domain_controller;strokeWidth=5;" parent="1" vertex="1">
          <mxGeometry x="1730" y="2999" width="180.72" height="251" as="geometry" />
        </mxCell>
        <mxCell id="v-oxT2buTYklCNRCgCxq-14" value="&lt;font style=&quot;font-size: 72px&quot;&gt;172.24.23.13&lt;/font&gt;" style="text;html=1;align=center;verticalAlign=middle;resizable=0;points=[];autosize=1;strokeColor=none;fillColor=none;strokeWidth=5;" parent="1" vertex="1">
          <mxGeometry x="-120" y="2730" width="440" height="40" as="geometry" />
        </mxCell>
        <mxCell id="v-oxT2buTYklCNRCgCxq-21" value="&lt;font style=&quot;font-size: 72px&quot;&gt;172.24.23.172&lt;/font&gt;" style="text;html=1;align=center;verticalAlign=middle;resizable=0;points=[];autosize=1;strokeColor=none;fillColor=none;strokeWidth=5;" parent="1" vertex="1">
          <mxGeometry x="1930" y="2672.1" width="480" height="40" as="geometry" />
        </mxCell>
        <mxCell id="v-oxT2buTYklCNRCgCxq-22" value="&lt;font style=&quot;font-size: 48px&quot;&gt;172.24.23.173&lt;/font&gt;" style="text;html=1;align=center;verticalAlign=middle;resizable=0;points=[];autosize=1;strokeColor=none;fillColor=none;strokeWidth=5;" parent="1" vertex="1">
          <mxGeometry x="1913" y="3044" width="320" height="30" as="geometry" />
        </mxCell>
        <mxCell id="v-oxT2buTYklCNRCgCxq-24" value="&lt;font style=&quot;font-size: 72px&quot;&gt;172.24.23.12&lt;/font&gt;" style="text;html=1;align=center;verticalAlign=middle;resizable=0;points=[];autosize=1;strokeColor=none;fillColor=none;strokeWidth=5;" parent="1" vertex="1">
          <mxGeometry x="1323.7" y="2710" width="440" height="40" as="geometry" />
        </mxCell>
        <mxCell id="v-oxT2buTYklCNRCgCxq-25" value="&lt;font style=&quot;font-size: 72px&quot;&gt;domain controller&lt;/font&gt;" style="text;html=1;align=center;verticalAlign=middle;resizable=0;points=[];autosize=1;strokeColor=none;fillColor=none;strokeWidth=5;" parent="1" vertex="1">
          <mxGeometry x="2000" y="2830" width="570" height="40" as="geometry" />
        </mxCell>
        <mxCell id="v-oxT2buTYklCNRCgCxq-39" style="edgeStyle=orthogonalEdgeStyle;rounded=0;orthogonalLoop=1;jettySize=auto;html=1;strokeWidth=5;" parent="1" source="v-oxT2buTYklCNRCgCxq-26" target="v-oxT2buTYklCNRCgCxq-5" edge="1">
          <mxGeometry relative="1" as="geometry" />
        </mxCell>
        <mxCell id="v-oxT2buTYklCNRCgCxq-26" value="" style="verticalLabelPosition=bottom;sketch=0;aspect=fixed;html=1;verticalAlign=top;strokeColor=none;align=center;outlineConnect=0;shape=mxgraph.citrix.dns_server;strokeWidth=5;" parent="1" vertex="1">
          <mxGeometry x="226.5" y="3170" width="116.93" height="141.39" as="geometry" />
        </mxCell>
        <mxCell id="v-oxT2buTYklCNRCgCxq-40" style="edgeStyle=orthogonalEdgeStyle;rounded=0;orthogonalLoop=1;jettySize=auto;html=1;strokeWidth=5;" parent="1" source="v-oxT2buTYklCNRCgCxq-27" target="v-oxT2buTYklCNRCgCxq-5" edge="1">
          <mxGeometry relative="1" as="geometry" />
        </mxCell>
        <mxCell id="v-oxT2buTYklCNRCgCxq-27" value="" style="verticalLabelPosition=bottom;sketch=0;aspect=fixed;html=1;verticalAlign=top;strokeColor=none;align=center;outlineConnect=0;shape=mxgraph.citrix.dns_server;strokeWidth=5;" parent="1" vertex="1">
          <mxGeometry x="150" y="3040" width="127.02" height="153.59" as="geometry" />
        </mxCell>
        <mxCell id="v-oxT2buTYklCNRCgCxq-38" style="edgeStyle=orthogonalEdgeStyle;rounded=0;orthogonalLoop=1;jettySize=auto;html=1;entryX=0.5;entryY=1;entryDx=0;entryDy=0;entryPerimeter=0;strokeWidth=5;" parent="1" source="v-oxT2buTYklCNRCgCxq-28" target="v-oxT2buTYklCNRCgCxq-5" edge="1">
          <mxGeometry relative="1" as="geometry" />
        </mxCell>
        <mxCell id="v-oxT2buTYklCNRCgCxq-28" value="" style="verticalLabelPosition=bottom;sketch=0;aspect=fixed;html=1;verticalAlign=top;strokeColor=none;align=center;outlineConnect=0;shape=mxgraph.citrix.dns_server;strokeWidth=5;" parent="1" vertex="1">
          <mxGeometry x="236.5" y="3340" width="109.49" height="132.39" as="geometry" />
        </mxCell>
        <mxCell id="v-oxT2buTYklCNRCgCxq-37" style="edgeStyle=orthogonalEdgeStyle;rounded=0;orthogonalLoop=1;jettySize=auto;html=1;entryX=0.25;entryY=1;entryDx=0;entryDy=0;entryPerimeter=0;strokeWidth=5;" parent="1" source="v-oxT2buTYklCNRCgCxq-30" target="v-oxT2buTYklCNRCgCxq-5" edge="1">
          <mxGeometry relative="1" as="geometry" />
        </mxCell>
        <mxCell id="v-oxT2buTYklCNRCgCxq-30" value="" style="verticalLabelPosition=bottom;sketch=0;aspect=fixed;html=1;verticalAlign=top;strokeColor=none;align=center;outlineConnect=0;shape=mxgraph.citrix.dns_server;strokeWidth=5;" parent="1" vertex="1">
          <mxGeometry x="150" y="3600" width="108.55" height="131.25" as="geometry" />
        </mxCell>
        <mxCell id="v-oxT2buTYklCNRCgCxq-32" value="&lt;font style=&quot;font-size: 72px&quot;&gt;172.24.23.172&lt;/font&gt;" style="text;html=1;align=center;verticalAlign=middle;resizable=0;points=[];autosize=1;strokeColor=none;fillColor=none;strokeWidth=5;" parent="1" vertex="1">
          <mxGeometry x="-430" y="3630.0000000000005" width="480" height="40" as="geometry" />
        </mxCell>
        <mxCell id="v-oxT2buTYklCNRCgCxq-33" value="&lt;font style=&quot;font-size: 72px&quot;&gt;172.24.23.173&lt;/font&gt;" style="text;html=1;align=center;verticalAlign=middle;resizable=0;points=[];autosize=1;strokeColor=none;fillColor=none;strokeWidth=5;" parent="1" vertex="1">
          <mxGeometry x="-300" y="3449.89" width="480" height="40" as="geometry" />
        </mxCell>
        <mxCell id="v-oxT2buTYklCNRCgCxq-34" value="&lt;font style=&quot;font-size: 72px&quot;&gt;172.24.23.40&lt;/font&gt;" style="text;html=1;align=center;verticalAlign=middle;resizable=0;points=[];autosize=1;strokeColor=none;fillColor=none;strokeWidth=5;" parent="1" vertex="1">
          <mxGeometry x="-273.5" y="3271.39" width="440" height="40" as="geometry" />
        </mxCell>
        <mxCell id="v-oxT2buTYklCNRCgCxq-35" value="&lt;font style=&quot;font-size: 72px&quot;&gt;172.24.23.12&lt;/font&gt;" style="text;html=1;align=center;verticalAlign=middle;resizable=0;points=[];autosize=1;strokeColor=none;fillColor=none;strokeWidth=5;" parent="1" vertex="1">
          <mxGeometry x="-380" y="3137.89" width="440" height="40" as="geometry" />
        </mxCell>
        <mxCell id="v-oxT2buTYklCNRCgCxq-42" value="&lt;font style=&quot;font-size: 72px&quot;&gt;&lt;font&gt;Dns &lt;/font&gt;&lt;font&gt;Server&lt;/font&gt;&lt;/font&gt;" style="text;html=1;align=center;verticalAlign=middle;resizable=0;points=[];autosize=1;strokeColor=none;fillColor=none;strokeWidth=5;" parent="1" vertex="1">
          <mxGeometry x="50" y="2999" width="380" height="40" as="geometry" />
        </mxCell>
        <mxCell id="v-oxT2buTYklCNRCgCxq-43" value="" style="sketch=0;aspect=fixed;html=1;points=[];align=center;image;fontSize=12;image=img/lib/mscae/OS_Images_Classic.svg;strokeWidth=5;" parent="1" vertex="1">
          <mxGeometry x="2300" y="3617" width="228.26" height="210" as="geometry" />
        </mxCell>
        <mxCell id="v-oxT2buTYklCNRCgCxq-44" value="&lt;font&gt;&lt;font style=&quot;font-size: 72px&quot;&gt;172.24.69.10&lt;br&gt;172.24.69.31&lt;/font&gt;&lt;br&gt;&lt;/font&gt;" style="text;html=1;align=center;verticalAlign=middle;resizable=0;points=[];autosize=1;strokeColor=none;fillColor=none;strokeWidth=5;" parent="1" vertex="1">
          <mxGeometry x="2198" y="3829.9999999999995" width="440" height="80" as="geometry" />
        </mxCell>
        <mxCell id="v-oxT2buTYklCNRCgCxq-45" value="&lt;font style=&quot;font-size: 72px&quot;&gt;OS Virtualization&lt;/font&gt;" style="text;html=1;align=center;verticalAlign=middle;resizable=0;points=[];autosize=1;strokeColor=none;fillColor=none;strokeWidth=5;" parent="1" vertex="1">
          <mxGeometry x="2130" y="3510" width="550" height="40" as="geometry" />
        </mxCell>
        <mxCell id="v-oxT2buTYklCNRCgCxq-46" value="" style="shape=image;html=1;verticalAlign=top;verticalLabelPosition=bottom;labelBackgroundColor=#ffffff;imageAspect=0;aspect=fixed;image=https://cdn2.iconfinder.com/data/icons/whcompare-isometric-web-hosting-servers/50/database-cache-128.png;strokeWidth=5;" parent="1" vertex="1">
          <mxGeometry x="1140" y="3715.38" width="128" height="128" as="geometry" />
        </mxCell>
        <mxCell id="v-oxT2buTYklCNRCgCxq-47" value="&lt;font style=&quot;font-size: 72px&quot;&gt;172.24.22.*&lt;br&gt;172.24.71.*&lt;/font&gt;" style="text;html=1;align=center;verticalAlign=middle;resizable=0;points=[];autosize=1;strokeColor=none;fillColor=none;strokeWidth=5;" parent="1" vertex="1">
          <mxGeometry x="1014" y="3890" width="380" height="80" as="geometry" />
        </mxCell>
        <mxCell id="v-oxT2buTYklCNRCgCxq-48" value="" style="image;html=1;image=img/lib/clip_art/computers/Virtual_Application_128x128.png;strokeWidth=5;" parent="1" vertex="1">
          <mxGeometry x="1470" y="3600" width="240" height="170" as="geometry" />
        </mxCell>
        <mxCell id="v-oxT2buTYklCNRCgCxq-49" value="&lt;font style=&quot;font-size: 72px&quot;&gt;db&lt;/font&gt;" style="text;html=1;align=center;verticalAlign=middle;resizable=0;points=[];autosize=1;strokeColor=none;fillColor=none;strokeWidth=5;" parent="1" vertex="1">
          <mxGeometry x="1168" y="3656.63" width="100" height="40" as="geometry" />
        </mxCell>
        <mxCell id="v-oxT2buTYklCNRCgCxq-50" value="&lt;font&gt;&lt;font style=&quot;font-size: 72px&quot;&gt;172.24.20.*&lt;br&gt;172.24.30.*&lt;br&gt;172.24.72.*&lt;br&gt;172.24.70.*&lt;/font&gt;&lt;br&gt;&lt;/font&gt;" style="text;html=1;align=center;verticalAlign=middle;resizable=0;points=[];autosize=1;strokeColor=none;fillColor=none;strokeWidth=5;" parent="1" vertex="1">
          <mxGeometry x="1550" y="3910" width="380" height="150" as="geometry" />
        </mxCell>
        <mxCell id="v-oxT2buTYklCNRCgCxq-64" style="edgeStyle=orthogonalEdgeStyle;rounded=0;orthogonalLoop=1;jettySize=auto;html=1;entryX=0.621;entryY=0.709;entryDx=0;entryDy=0;entryPerimeter=0;strokeWidth=5;" parent="1" source="v-oxT2buTYklCNRCgCxq-51" target="v-oxT2buTYklCNRCgCxq-5" edge="1">
          <mxGeometry relative="1" as="geometry" />
        </mxCell>
        <mxCell id="v-oxT2buTYklCNRCgCxq-51" value="" style="verticalLabelPosition=bottom;sketch=0;aspect=fixed;html=1;verticalAlign=top;strokeColor=none;align=center;outlineConnect=0;shape=mxgraph.citrix.radius_server;strokeWidth=5;" parent="1" vertex="1">
          <mxGeometry x="758.69" y="3780" width="129.01" height="155.5" as="geometry" />
        </mxCell>
        <mxCell id="v-oxT2buTYklCNRCgCxq-52" value="&lt;font style=&quot;font-size: 72px&quot;&gt;radius server&lt;/font&gt;" style="text;html=1;align=center;verticalAlign=middle;resizable=0;points=[];autosize=1;strokeColor=none;fillColor=none;strokeWidth=5;" parent="1" vertex="1">
          <mxGeometry x="560" y="3730" width="430" height="40" as="geometry" />
        </mxCell>
        <mxCell id="v-oxT2buTYklCNRCgCxq-53" value="&lt;font style=&quot;font-size: 72px&quot;&gt;172.24.11.249&lt;/font&gt;" style="text;html=1;align=center;verticalAlign=middle;resizable=0;points=[];autosize=1;strokeColor=none;fillColor=none;strokeWidth=5;" parent="1" vertex="1">
          <mxGeometry x="303.00000000000006" y="3930" width="470" height="40" as="geometry" />
        </mxCell>
        <mxCell id="v-oxT2buTYklCNRCgCxq-56" style="edgeStyle=orthogonalEdgeStyle;rounded=0;orthogonalLoop=1;jettySize=auto;html=1;strokeWidth=5;" parent="1" source="v-oxT2buTYklCNRCgCxq-54" target="v-oxT2buTYklCNRCgCxq-3" edge="1">
          <mxGeometry relative="1" as="geometry" />
        </mxCell>
        <mxCell id="v-oxT2buTYklCNRCgCxq-54" value="" style="image;html=1;image=img/lib/clip_art/networking/Router_Icon_128x128.png;strokeWidth=5;" parent="1" vertex="1">
          <mxGeometry x="1683.7" y="2190" width="246.3" height="190" as="geometry" />
        </mxCell>
        <mxCell id="v-oxT2buTYklCNRCgCxq-67" value="" style="endArrow=classic;html=1;strokeWidth=5;" parent="1" source="v-oxT2buTYklCNRCgCxq-46" edge="1">
          <mxGeometry width="50" height="50" relative="1" as="geometry">
            <mxPoint x="1520" y="3680" as="sourcePoint" />
            <mxPoint x="1010" y="2990" as="targetPoint" />
          </mxGeometry>
        </mxCell>
        <mxCell id="v-oxT2buTYklCNRCgCxq-68" value="" style="endArrow=classic;startArrow=classic;html=1;entryX=0.75;entryY=1;entryDx=0;entryDy=0;entryPerimeter=0;strokeWidth=5;" parent="1" source="v-oxT2buTYklCNRCgCxq-48" target="v-oxT2buTYklCNRCgCxq-5" edge="1">
          <mxGeometry width="50" height="50" relative="1" as="geometry">
            <mxPoint x="1530" y="3440" as="sourcePoint" />
            <mxPoint x="1580" y="3390" as="targetPoint" />
          </mxGeometry>
        </mxCell>
        <mxCell id="v-oxT2buTYklCNRCgCxq-69" value="&lt;font style=&quot;font-size: 72px&quot;&gt;&lt;font&gt;app virtu&lt;/font&gt;&lt;font&gt;alization&lt;/font&gt;&lt;/font&gt;" style="text;html=1;align=center;verticalAlign=middle;resizable=0;points=[];autosize=1;strokeColor=none;fillColor=none;strokeWidth=5;" parent="1" vertex="1">
          <mxGeometry x="1350" y="3560" width="560" height="40" as="geometry" />
        </mxCell>
        <mxCell id="v-oxT2buTYklCNRCgCxq-70" value="" style="endArrow=classic;startArrow=classic;html=1;strokeWidth=5;" parent="1" source="v-oxT2buTYklCNRCgCxq-43" edge="1">
          <mxGeometry width="50" height="50" relative="1" as="geometry">
            <mxPoint x="1670" y="3350" as="sourcePoint" />
            <mxPoint x="980" y="3000" as="targetPoint" />
          </mxGeometry>
        </mxCell>
        <mxCell id="v-oxT2buTYklCNRCgCxq-23" value="&lt;font style=&quot;font-size: 72px&quot;&gt;172.24.23.40&lt;/font&gt;" style="text;html=1;align=center;verticalAlign=middle;resizable=0;points=[];autosize=1;strokeColor=none;fillColor=none;strokeWidth=5;" parent="1" vertex="1">
          <mxGeometry x="1280" y="3044" width="440" height="40" as="geometry" />
        </mxCell>
        <mxCell id="v-oxT2buTYklCNRCgCxq-74" value="&lt;font style=&quot;font-size: 72px&quot;&gt;Range ip 172.24.&lt;/font&gt;" style="text;html=1;align=center;verticalAlign=middle;resizable=0;points=[];autosize=1;strokeColor=none;fillColor=none;strokeWidth=5;" parent="1" vertex="1">
          <mxGeometry x="609" y="2700" width="560" height="40" as="geometry" />
        </mxCell>
        <mxCell id="v-oxT2buTYklCNRCgCxq-75" value="&lt;font&gt;&lt;font style=&quot;font-size: 72px&quot;&gt;&lt;br&gt;&lt;/font&gt;&lt;br&gt;&lt;/font&gt;" style="text;html=1;align=center;verticalAlign=middle;resizable=0;points=[];autosize=1;strokeColor=none;fillColor=none;strokeWidth=5;" parent="1" vertex="1">
          <mxGeometry x="2261" y="4036" width="20" height="50" as="geometry" />
        </mxCell>
        <mxCell id="v-oxT2buTYklCNRCgCxq-85" value="&lt;h1&gt;Range Ip 172.24.*.*&lt;/h1&gt;&lt;div&gt;switch&lt;/div&gt;&lt;div&gt;domain controller&amp;nbsp;&lt;/div&gt;&lt;div&gt;os virtualization&amp;nbsp;&lt;/div&gt;&lt;div&gt;app virtualization&amp;nbsp;&lt;/div&gt;&lt;div&gt;db&amp;nbsp;&lt;/div&gt;&lt;div&gt;radius&amp;nbsp;&lt;/div&gt;&lt;div&gt;vpn server&lt;/div&gt;&lt;div&gt;dhcp&lt;/div&gt;&lt;div&gt;dns&lt;/div&gt;" style="text;html=1;strokeColor=none;fillColor=default;spacing=5;spacingTop=-20;whiteSpace=wrap;overflow=hidden;rounded=0;fontSize=100;strokeWidth=5;" parent="1" vertex="1">
          <mxGeometry x="5845" y="2810" width="1410" height="1880" as="geometry" />
        </mxCell>
        <mxCell id="Vrez7RpRRqNkDZ4VhC93-6" style="edgeStyle=orthogonalEdgeStyle;rounded=0;orthogonalLoop=1;jettySize=auto;html=1;entryX=0.5;entryY=0;entryDx=0;entryDy=0;entryPerimeter=0;endArrow=open;startSize=14;endSize=14;sourcePerimeterSpacing=8;targetPerimeterSpacing=8;strokeWidth=10;" parent="1" source="Vrez7RpRRqNkDZ4VhC93-1" target="Vrez7RpRRqNkDZ4VhC93-2" edge="1">
          <mxGeometry relative="1" as="geometry" />
        </mxCell>
        <mxCell id="Vrez7RpRRqNkDZ4VhC93-1" value="" style="verticalLabelPosition=bottom;sketch=0;aspect=fixed;html=1;verticalAlign=top;strokeColor=none;align=center;outlineConnect=0;shape=mxgraph.citrix.dhcp_server;hachureGap=4;pointerEvents=0;" parent="1" vertex="1">
          <mxGeometry x="4530" y="2200" width="329.33" height="390" as="geometry" />
        </mxCell>
        <mxCell id="Vrez7RpRRqNkDZ4VhC93-5" style="edgeStyle=orthogonalEdgeStyle;rounded=0;orthogonalLoop=1;jettySize=auto;html=1;entryX=1;entryY=0.5;entryDx=0;entryDy=0;endArrow=open;startSize=14;endSize=14;sourcePerimeterSpacing=8;targetPerimeterSpacing=8;strokeWidth=10;" parent="1" source="Vrez7RpRRqNkDZ4VhC93-2" target="v-oxT2buTYklCNRCgCxq-54" edge="1">
          <mxGeometry relative="1" as="geometry" />
        </mxCell>
        <mxCell id="Vrez7RpRRqNkDZ4VhC93-2" value="" style="sketch=0;points=[[0.015,0.015,0],[0.985,0.015,0],[0.985,0.985,0],[0.015,0.985,0],[0.25,0,0],[0.5,0,0],[0.75,0,0],[1,0.25,0],[1,0.5,0],[1,0.75,0],[0.75,1,0],[0.5,1,0],[0.25,1,0],[0,0.75,0],[0,0.5,0],[0,0.25,0]];verticalLabelPosition=bottom;html=1;verticalAlign=top;aspect=fixed;align=center;pointerEvents=1;shape=mxgraph.cisco19.rect;prIcon=l3_switch;fillColor=#FAFAFA;strokeColor=#005073;hachureGap=4;" parent="1" vertex="1">
          <mxGeometry x="3917" y="2777" width="313" height="313" as="geometry" />
        </mxCell>
        <mxCell id="Vrez7RpRRqNkDZ4VhC93-9" value="&lt;font style=&quot;font-size: 72px&quot;&gt;dhcp server&lt;/font&gt;" style="text;html=1;align=center;verticalAlign=middle;resizable=0;points=[];autosize=1;strokeColor=none;fillColor=none;" parent="1" vertex="1">
          <mxGeometry x="4905" y="2300" width="390" height="40" as="geometry" />
        </mxCell>
        <mxCell id="Vrez7RpRRqNkDZ4VhC93-10" value="&lt;font style=&quot;font-size: 80px&quot;&gt;range ip 172.23.&lt;/font&gt;" style="text;html=1;align=center;verticalAlign=middle;resizable=0;points=[];autosize=1;strokeColor=none;fillColor=none;fontSize=80;" parent="1" vertex="1">
          <mxGeometry x="3460" y="2660" width="590" height="100" as="geometry" />
        </mxCell>
        <mxCell id="Vrez7RpRRqNkDZ4VhC93-11" value="&lt;font style=&quot;font-size: 72px&quot;&gt;172.23.107.13&lt;/font&gt;" style="text;html=1;align=center;verticalAlign=middle;resizable=0;points=[];autosize=1;strokeColor=none;fillColor=none;" parent="1" vertex="1">
          <mxGeometry x="4670" y="2100" width="480" height="40" as="geometry" />
        </mxCell>
        <mxCell id="iORR3to10rfuiLWKSEvr-3" style="edgeStyle=orthogonalEdgeStyle;rounded=0;orthogonalLoop=1;jettySize=auto;html=1;entryX=0.25;entryY=1;entryDx=0;entryDy=0;entryPerimeter=0;endArrow=open;startSize=14;endSize=14;sourcePerimeterSpacing=8;targetPerimeterSpacing=8;" edge="1" parent="1" source="iORR3to10rfuiLWKSEvr-1" target="Vrez7RpRRqNkDZ4VhC93-2">
          <mxGeometry relative="1" as="geometry" />
        </mxCell>
        <mxCell id="iORR3to10rfuiLWKSEvr-4" style="edgeStyle=orthogonalEdgeStyle;rounded=0;orthogonalLoop=1;jettySize=auto;html=1;entryX=0.5;entryY=1;entryDx=0;entryDy=0;entryPerimeter=0;endArrow=open;startSize=14;endSize=14;sourcePerimeterSpacing=8;targetPerimeterSpacing=8;strokeWidth=10;" edge="1" parent="1" source="iORR3to10rfuiLWKSEvr-1" target="Vrez7RpRRqNkDZ4VhC93-2">
          <mxGeometry relative="1" as="geometry" />
        </mxCell>
        <mxCell id="iORR3to10rfuiLWKSEvr-1" value="" style="verticalLabelPosition=bottom;sketch=0;aspect=fixed;html=1;verticalAlign=top;strokeColor=none;align=center;outlineConnect=0;shape=mxgraph.citrix.dns_server;hachureGap=4;pointerEvents=0;" vertex="1" parent="1">
          <mxGeometry x="4940" y="2977.89" width="500" height="604.58" as="geometry" />
        </mxCell>
        <mxCell id="iORR3to10rfuiLWKSEvr-5" value="&lt;font style=&quot;font-size: 72px&quot;&gt;dns server&lt;/font&gt;" style="text;html=1;align=center;verticalAlign=middle;resizable=0;points=[];autosize=1;strokeColor=none;fillColor=none;" vertex="1" parent="1">
          <mxGeometry x="4845" y="3720" width="350" height="40" as="geometry" />
        </mxCell>
        <mxCell id="iORR3to10rfuiLWKSEvr-6" value="Text" style="text;html=1;align=center;verticalAlign=middle;resizable=0;points=[];autosize=1;strokeColor=none;fillColor=none;" vertex="1" parent="1">
          <mxGeometry x="4890" y="4130" width="40" height="20" as="geometry" />
        </mxCell>
        <mxCell id="iORR3to10rfuiLWKSEvr-8" value="&lt;font style=&quot;font-size: 72px&quot;&gt;172.23.107.30&lt;/font&gt;" style="text;html=1;align=center;verticalAlign=middle;resizable=0;points=[];autosize=1;strokeColor=none;fillColor=none;" vertex="1" parent="1">
          <mxGeometry x="4850" y="3820" width="480" height="40" as="geometry" />
        </mxCell>
      </root>
    </mxGraphModel>
  </diagram>
</mxfile>
